<?xml version="1.0" encoding="UTF-8"?>
<svg width="1440px" height="346px" viewBox="0 0 1440 346" version="1.1" xmlns="http://www.w3.org/2000/svg" xmlns:xlink="http://www.w3.org/1999/xlink">
    <!-- Generator: Sketch 54.1 (76490) - https://sketchapp.com -->
    <title>CTA</title>
    <desc>Created with Sketch.</desc>
    <g id="Page-1" stroke="none" stroke-width="1" fill="none" fill-rule="evenodd">
        <g id="Homepage-whistle" transform="translate(0.000000, -6546.000000)">
            <g id="CTA" transform="translate(0.000000, 6546.000000)">
                <rect id="Rectangle-Copy-30" fill="#302B57" x="0" y="0" width="1440" height="346"></rect>
                <g id="Group-8" transform="translate(1220.000000, 0.000000)" fill="#FFFFFF">
                    <path d="M132,0 L220,0 L220,93 L147,93 C138.715729,93 132,86.2842712 132,78 L132,0 Z" id="Rectangle"></path>
                    <rect id="Rectangle-Copy-6" x="146" y="272" width="74" height="74"></rect>
                    <path d="M0,122 L74,122 L74,201 L15,201 C6.71572875,201 1.01453063e-15,194.284271 0,186 L0,122 Z" id="Rectangle-Copy-3"></path>
                    <path d="M74,197 L132,197 C140.284271,197 147,203.715729 147,212 L147,276 L89,276 C80.7157288,276 74,269.284271 74,261 L74,197 Z" id="Rectangle-Copy-5"></path>
                </g>
            </g>
        </g>
    </g>
</svg>