<?xml version="1.0" encoding="UTF-8"?>
<svg width="136px" height="86px" viewBox="0 0 136 86" version="1.1" xmlns="http://www.w3.org/2000/svg" xmlns:xlink="http://www.w3.org/1999/xlink">
    <!-- Generator: Sketch 54.1 (76490) - https://sketchapp.com -->
    <title>Group 37</title>
    <desc>Created with Sketch.</desc>
    <defs>
        <polygon id="path-1" points="0.155767359 0.201692011 62.370579 0.201692011 62.370579 44.2244556 0.155767359 44.2244556"></polygon>
    </defs>
    <g id="Page-1" stroke="none" stroke-width="1" fill="none" fill-rule="evenodd">
        <g id="Group-37">
            <g id="Group-3" transform="translate(32.759124, 0.000000)">
                <mask id="mask-2" fill="white">
                    <use xlink:href="#path-1"></use>
                </mask>
                <g id="Clip-2"></g>
                <path d="M33.8441142,33.3597758 C33.0925206,34.058238 32.5185411,34.9257899 32.1210637,35.8693217 C31.1904663,38.0774348 30.3982912,40.3811444 28.8817621,42.2585378 C26.5677767,45.1242221 22.4139992,44.7962654 20.4218871,41.6708681 C19.0629592,39.5390111 10.419911,24.4897479 9.99074663,23.7545391 C7.26816561,19.0899278 4.56031626,14.4164753 1.85079918,9.74412786 C1.49140181,9.12440844 1.12755714,8.50579417 0.803738161,7.86756329 C-0.553799942,5.19113793 0.271729985,2.33705783 2.81197174,0.875757764 C5.19489028,-0.495471621 8.179584,0.268195117 9.74253174,2.77442557 C11.1998561,5.11211887 12.5243174,7.53159413 13.9088173,9.91432277 C17.1478409,15.4895873 20.3868646,21.0648518 23.6311694,26.6373534 C23.7618088,26.8617012 23.9452599,27.0556571 24.2704687,27.4816969 C25.2349767,25.2978974 26.1269382,23.3133033 26.9899922,21.3165524 C28.4100704,18.0300777 29.8112476,14.735867 31.2204856,11.4449717 C32.1861055,9.18933669 33.7015227,7.69184258 36.3532249,7.7258263 C38.992697,7.75953373 40.4647531,9.28217027 41.4334304,11.5367001 C43.2598806,15.7871521 45.1224652,20.0226843 46.9814363,24.2593217 C47.1698906,24.6889533 47.2354882,25.3280131 47.871452,25.3028706 C48.372885,25.2829777 48.4954637,24.7221082 48.7103239,24.3574048 C50.0814818,22.0310394 51.3787034,19.6596387 52.8054526,17.3678096 C54.0493066,15.3696772 55.9758211,14.7087905 58.2603431,15.0754279 C60.1946404,15.3857021 61.8048406,17.0232754 62.2565195,19.0418533 C62.5625493,20.4097672 62.2265002,21.6608102 61.5619069,22.8496879 C61.0551928,23.7556442 56.2879659,31.9288676 55.4796693,33.3354622 C54.9910222,34.1858841 53.0214246,37.3372527 52.3368185,38.6968779 C51.4076109,40.5427743 50.1415204,42.0311508 47.9003595,42.2599193 C45.1533183,42.540354 43.0708704,41.2486963 41.8898345,38.5548646 C40.6445907,35.7145991 37.9361855,29.5571906 33.8441142,33.3597758" id="Fill-1" fill="#4909D3" mask="url(#mask-2)"></path>
            </g>
            <path d="M93.313869,9.86700027 C93.3149844,7.19761148 95.5856255,4.94610457 98.2806699,4.94253293 C100.970137,4.93896129 103.258067,7.21546968 103.240779,9.87798993 C103.223211,12.5616653 100.924964,14.8472401 98.264218,14.8274588 C95.5538371,14.8071279 93.3127536,12.5613905 93.313869,9.86700027" id="Fill-4" fill="#4909D3"></path>
            <path d="M24.9499626,64.5335808 C26.1877446,64.9850072 26.8029197,65.585883 26.8029197,66.3356484 C26.8029197,66.577454 26.6944727,67.0397953 26.4706976,67.7151158 L21.1603736,83.3230529 C21.1221144,83.4545907 21.059083,83.614675 20.9682518,83.8030259 C20.8738424,83.9913768 20.6291485,84.2365408 20.2341703,84.5494328 C19.8391921,84.8586865 19.3671449,85.0114943 18.8216071,85.0114943 C18.2799226,85.0114943 17.8078755,84.8586865 17.4128973,84.5494328 C17.0143408,84.2365408 16.7520313,83.9345637 16.6229408,83.6323066 L13.3890738,73.9284568 C11.3406919,80.0813463 10.2988852,83.213065 10.2603508,83.3230529 C10.2253945,83.436959 10.1414444,83.5967635 10.0120787,83.8030259 C9.88271306,84.0092883 9.73600686,84.1976392 9.57168491,84.3647202 C9.14505337,84.7982351 8.63832521,85.0114943 8.04737172,85.0114943 C7.45669348,85.0114943 6.97418698,84.8729598 6.59654926,84.5886143 C6.21918679,84.3076272 5.96375836,84.02692 5.83466791,83.7462128 L5.64227085,83.3230529 L0.303871751,67.7151158 C0.101290584,67.0966084 1.75859327e-13,66.6342671 1.75859327e-13,66.3356484 C1.75859327e-13,65.585883 0.615175148,64.9956422 1.85268184,64.5621273 C2.38748512,64.3771348 2.86999162,64.2814201 3.30350431,64.2814201 C3.73701699,64.2814201 4.0692391,64.4305895 4.29989537,64.7325667 C4.53055165,65.0311854 4.73671102,65.4898884 4.92222692,66.1120341 L7.96699985,75.502992 L10.9803947,66.2505686 C11.2391261,65.4649802 11.707595,64.9211974 12.3926827,64.6189404 C12.6863704,64.4874026 13.0708892,64.4233129 13.5393582,64.4233129 C14.0114053,64.4233129 14.4484962,64.5764005 14.8539338,64.8856542 C15.2593714,65.194908 15.5181028,65.5005234 15.6301279,65.8027804 L18.8111477,75.5598051 L21.8526177,66.1120341 C21.9995991,65.6782393 22.1182302,65.3617091 22.2126396,65.1557265 C22.3037461,64.9494641 22.4749492,64.7468399 22.7232213,64.547854 C22.9714933,64.3525064 23.2825214,64.2528736 23.6494246,64.2528736 C24.0201811,64.2528736 24.4536938,64.3488682 24.9499626,64.5335808" id="Fill-6" fill="#020202"></path>
            <path d="M37.0688553,70.2431991 C38.9615327,70.2431991 40.5352829,70.9541822 41.7934929,72.3797873 C43.0480337,73.8056724 43.6788321,75.55094 43.6788321,77.613071 L43.6788321,82.5653204 C43.6788321,82.9955492 43.6647203,83.3191305 43.6359322,83.5360643 C43.6074263,83.7493592 43.5176751,83.9982033 43.3669609,84.2789577 C43.1197218,84.769648 42.3921163,85.0114943 41.1804754,85.0114943 C40.0297975,85.0114943 39.309248,84.769648 39.0261648,84.2789577 C38.8754506,83.9982033 38.7859816,83.7457204 38.7571935,83.5217887 C38.7284054,83.2942181 38.7142936,82.9563611 38.7142936,82.5084977 L38.7142936,77.5847996 C38.7142936,76.8167139 38.4955604,76.2157372 38.061763,75.7857884 C37.6279656,75.3519207 37.0725244,75.1386258 36.4022129,75.1386258 C35.7319014,75.1386258 35.1403339,75.337925 34.6311794,75.7429614 C34.1186381,76.1446389 33.82483,76.5997801 33.7494728,77.1047461 L33.7494728,82.5653204 C33.7494728,82.9955492 33.7350788,83.3191305 33.7062907,83.5360643 C33.6814539,83.7493592 33.5880336,83.9982033 33.4376016,84.2789577 C33.1940316,84.769648 32.4624748,85.0114943 31.254503,85.0114943 C30.0645942,85.0114943 29.3330374,84.7590113 29.0714043,84.2506863 C28.9387532,83.969652 28.8563401,83.7280857 28.8278343,83.5217887 C28.7990462,83.3154916 28.7883212,82.9849124 28.7883212,82.537049 L28.7883212,65.7139006 C28.7883212,65.2803129 28.7990462,64.9567316 28.8278343,64.7434367 C28.8563401,64.5265028 28.9387532,64.2882955 29.0714043,64.0251757 C29.3330374,63.5168508 30.0716501,63.2643678 31.2832911,63.2643678 C32.4731998,63.2643678 33.1940316,63.5168508 33.4376016,64.0251757 C33.5880336,64.30621 33.6814539,64.5550541 33.7062907,64.771708 C33.7350788,64.985003 33.7494728,65.3085843 33.7494728,65.742172 L33.7494728,71.9568363 C34.6958115,70.8156244 35.8035895,70.2431991 37.0688553,70.2431991" id="Fill-8" fill="#020202"></path>
            <path d="M45.6642336,72.6608216 C45.6642336,72.2305928 45.6749636,71.9070115 45.7037654,71.6903576 C45.7322848,71.4770627 45.8147369,71.2279387 45.9474509,70.9471843 C46.2092081,70.456494 46.9481709,70.2149277 48.1603863,70.2149277 C49.0676418,70.2149277 49.7097517,70.3747589 50.089822,70.6910624 C50.4125711,70.9541822 50.5811461,71.3597785 50.5992178,71.9033726 C50.620678,72.0883962 50.6277372,72.3621527 50.6277372,72.7176443 L50.6277372,82.5656003 C50.6277372,82.9955492 50.6133363,83.3191305 50.5845346,83.5360643 C50.5594036,83.7493592 50.4662215,83.9982033 50.3157181,84.2789577 C50.0717503,84.769648 49.340129,85.0114943 48.1315845,85.0114943 C46.9408293,85.0114943 46.2092081,84.7590113 45.9474509,84.2506863 C45.8147369,83.969652 45.7322848,83.7280857 45.7037654,83.5217887 C45.6749636,83.3154916 45.6642336,82.9849124 45.6642336,82.537049 L45.6642336,72.6608216 Z M50.330119,67.4418136 C50.1900634,67.7155701 49.9390363,67.9075915 49.5804261,68.0212368 C49.2181451,68.1315232 48.7412218,68.1883458 48.1459854,68.1883458 C47.550749,68.1883458 47.0701549,68.1315232 46.7112623,68.0212368 C46.3526522,67.9075915 46.101625,67.7119312 45.9618518,67.4275379 C45.8184077,67.1467836 45.7322848,66.8979395 45.7037654,66.6846445 C45.6749636,66.4677107 45.6642336,66.1441294 45.6642336,65.7139006 C45.6642336,65.2803129 45.6749636,64.9567316 45.7037654,64.7434367 C45.7322848,64.5265028 45.8147369,64.2882955 45.9474509,64.0251757 C46.2092081,63.5168508 46.9481709,63.2643678 48.1603863,63.2643678 C49.3511415,63.2643678 50.0717503,63.5168508 50.3157181,64.0251757 C50.4662215,64.30621 50.5594036,64.5550541 50.5845346,64.771708 C50.6133363,64.9852829 50.6277372,65.3085843 50.6277372,65.7424519 C50.6277372,66.1726807 50.6133363,66.496262 50.5845346,66.7129159 C50.5594036,66.9262108 50.4735631,67.171696 50.330119,67.4418136 L50.330119,67.4418136 Z" id="Fill-10" fill="#020202"></path>
            <path d="M53.1274541,83.4911181 C52.7845772,83.2749252 52.6131387,82.9317191 52.6131387,82.4579865 C52.6131387,81.9877671 52.9560156,81.2737902 53.6452793,80.312813 C53.8442559,80.0071704 54.1631044,79.8528628 54.6053347,79.8528628 C55.0510747,79.8528628 55.6512443,80.0725687 56.4123231,80.5187367 C57.1704322,80.9613916 57.8594258,81.1810975 58.4733645,81.1810975 C59.5775902,81.1810975 60.1297031,80.9649047 60.1297031,80.532519 C60.1297031,80.1857997 59.522514,79.9317731 58.3121854,79.7704392 C57.1704322,79.6091053 56.0386683,79.1834757 54.9174337,78.4935502 C54.392859,78.1676395 53.9606181,77.6560732 53.6177411,76.9593918 C53.2716244,76.2624401 53.0999159,75.4355025 53.0999159,74.474255 C53.0999159,71.6153749 55.0648438,70.183908 58.9876799,70.183908 C60.2736034,70.183908 61.5938146,70.4895507 62.9515533,71.1073217 C63.5825009,71.3956689 63.9013494,71.7594134 63.9013494,72.1917991 C63.9013494,72.6276979 63.7026428,73.1633157 63.3046896,73.794869 C62.9034965,74.4296653 62.4990637,74.7455771 62.0805919,74.7455771 C61.8646064,74.7455771 61.4634134,74.6118077 60.8735031,74.3369726 C60.2873725,74.0659208 59.6494054,73.9321515 58.9601418,73.9321515 C57.8937135,73.9321515 57.3623892,74.1310489 57.3623892,74.5293842 C57.3623892,75.0714878 57.976058,75.4252333 59.2071752,75.5865672 C60.4004949,75.7133103 61.5560172,76.0600295 62.6807615,76.6196988 C63.2018265,76.8734551 63.640817,77.3128671 63.9942232,77.9376644 C64.3473594,78.5621915 64.5255474,79.3448096 64.5255474,80.2852484 C64.5255474,81.2292004 64.3473594,82.0288437 63.9942232,82.6914748 C63.640817,83.3503225 63.1505299,83.8445934 62.5160726,84.1707743 C61.3570406,84.7301733 59.9066981,85.0114943 58.1612655,85.0114943 C56.4158329,85.0114943 54.7392457,84.5069542 53.1274541,83.4911181" id="Fill-12" fill="#020202"></path>
            <path d="M74.9295717,75.2218787 L73.0826164,75.1122457 L73.0826164,78.9716615 C73.0826164,79.4733578 73.1615534,79.8373171 73.3233883,80.0602004 C73.4849403,80.2861446 73.7868247,80.3957776 74.2324366,80.3957776 C74.6780485,80.3957776 75.0192599,80.4099687 75.2566367,80.4383508 C75.4937305,80.4664547 75.7452537,80.5549403 76.0112062,80.7032509 C76.4460668,80.9472817 76.6650532,81.5728021 76.6650532,82.5798119 C76.6650532,83.753219 76.3993837,84.4705639 75.8674787,84.7321249 C75.5837017,84.8629054 75.3318956,84.9408171 75.1126262,84.968921 C74.8973179,84.9973032 74.5773261,85.0114943 74.1605728,85.0114943 C72.1913926,85.0114943 70.6927219,84.5729622 69.6688048,83.6967329 C68.6446047,82.8202254 68.1342023,81.339345 68.1342023,79.2507527 L68.1342023,75.1122457 C67.7714883,75.16901 67.3833108,75.1971139 66.9662747,75.1971139 C66.5495214,75.1971139 66.204632,75.0379513 65.9279282,74.7199042 C65.6549025,74.4018572 65.5182482,73.8612051 65.5182482,73.0979479 C65.5182482,72.3346906 65.5649313,71.7795692 65.6582976,71.4334183 C65.755342,71.0906064 65.8883183,70.8432365 66.0572264,70.6946476 C66.3591108,70.450895 66.7402151,70.3306883 67.1962953,70.3306883 L68.1342023,70.440043 L68.1342023,67.5598114 C68.1342023,67.1324096 68.1486316,66.8143626 68.1774903,66.6092876 C68.2026709,66.4042127 68.2926421,66.1816076 68.4468379,65.937855 C68.6912879,65.4748364 69.4206768,65.2413793 70.6352875,65.2413793 C71.9254401,65.2413793 72.6907609,65.5844694 72.938606,66.2734322 C73.0322552,66.5739491 73.0826164,67.0475414 73.0826164,67.7011656 L73.0826164,70.440043 C73.9161229,70.3660268 74.5450723,70.3306883 74.9725768,70.3306883 C75.3966861,70.3306883 75.7200731,70.3448794 75.9393424,70.3729832 C76.1549337,70.3977481 76.4064569,70.4898509 76.6939119,70.6381616 C77.186207,70.8785751 77.4306569,71.59592 77.4306569,72.7904746 C77.4306569,73.9638817 77.1754557,74.6845657 76.6650532,74.9427876 C76.3775982,75.0732898 76.126075,75.1548189 75.9104837,75.1829228 C75.6912144,75.2076876 75.3644323,75.2218787 74.9295717,75.2218787" id="Fill-14" fill="#020202"></path>
            <path d="M78.4233577,65.7333728 C78.4233577,65.3013736 78.4343986,64.9789779 78.4640347,64.7664644 C78.4933802,64.5503254 78.5782209,64.302393 78.7147794,64.0226672 C78.9844099,63.5195513 79.744489,63.2643678 80.9918205,63.2643678 C82.1801704,63.2643678 82.9181677,63.5195513 83.2095894,64.0226672 C83.3644526,64.302393 83.4606247,64.5539509 83.4864837,64.7804088 C83.5158292,65.003799 83.5306473,65.3295414 83.5306473,65.7618195 L83.5306473,78.7365761 C83.5306473,79.4098143 83.589629,79.8348413 83.7075923,80.0119358 C83.8223596,80.1923771 84.0806586,80.2810638 84.4790028,80.2810638 C84.8814147,80.2810638 85.1469775,80.2952871 85.283536,80.3201083 C85.4200946,80.3482761 85.5859987,80.4297117 85.7818295,80.5607895 C86.1691327,80.8017497 86.3649635,81.4674579 86.3649635,82.5514998 C86.3649635,83.727575 86.1691327,84.4465511 85.7818295,84.7087068 C85.2724951,85.0453259 84.06555,85.1019404 82.1580886,84.8752036 C80.6597218,84.6911368 79.6855073,84.212842 79.2389318,83.4478493 C78.6926976,82.5303042 78.4233577,81.0745032 78.4233577,79.0731952 L78.4233577,65.7333728 Z" id="Fill-16" fill="#020202"></path>
            <path d="M96.2423329,77.1017346 C96.9619687,77.1017346 97.3217866,76.7969858 97.3217866,76.1840608 C97.3217866,75.741361 97.156327,75.3894861 96.8254079,75.1210101 C96.4942055,74.8525341 96.0190758,74.7182962 95.4003024,74.7182962 C94.7849288,74.7182962 94.1732384,74.9722059 93.5649478,75.480311 C92.9569406,75.9881305 92.6546369,76.5285098 92.6546369,77.1017346 L96.2423329,77.1017346 Z M102.248175,76.2528935 C102.248175,77.4319029 101.960321,78.3024506 101.380929,78.8645365 C100.801537,79.430621 100.160948,79.7136632 99.4591615,79.7136632 L92.7084679,79.7136632 C92.7084679,80.2503296 93.0255043,80.7001697 93.6513608,81.0628979 C94.2775006,81.4259117 94.9036404,81.6069902 95.5297802,81.6069902 C96.6310496,81.6069902 97.4946125,81.4947444 98.1207523,81.2625412 L98.4338222,81.1500098 C98.8908193,80.9397988 99.2684864,80.8344077 99.5707901,80.8344077 C100.179081,80.8344077 100.700675,81.2625412 101.139823,82.1259486 C101.384329,82.6409084 101.510407,83.0798952 101.510407,83.4463364 C101.510407,85.1474459 99.4880603,86 95.4433672,86 C94.0400774,86 92.791481,85.7569435 91.7009778,85.2674033 C90.6070748,84.7812904 89.7579612,84.1355199 89.1496707,83.3303776 C87.9551886,81.781214 87.3576642,80.0472589 87.3576642,78.1356528 C87.3576642,75.7230818 88.1314144,73.7969094 89.6786313,72.3497096 C91.2261315,70.9059371 93.1549821,70.183908 95.472266,70.183908 C98.1099861,70.183908 100.04592,71.119861 101.280067,72.99548 C101.927739,73.9928398 102.248175,75.077597 102.248175,76.2528935 L102.248175,76.2528935 Z" id="Fill-18" fill="#020202"></path>
            <path d="M111.182482,67.7324363 C111.182482,67.2993193 111.193089,66.9738475 111.221562,66.7554573 C111.249756,66.5407304 111.338525,66.289934 111.490939,66.0039133 C111.749707,65.4955573 112.479955,65.2413793 113.67833,65.2413793 C114.98669,65.2413793 115.763276,65.5885492 116.007808,66.289934 C116.099926,66.6086427 116.145985,67.0989639 116.145985,67.7611793 L116.145985,83.508943 C116.145985,83.959813 116.131749,84.2926115 116.103555,84.5002935 C116.075082,84.7079755 115.986593,84.9511635 115.837529,85.2338027 C115.575131,85.745822 114.844884,86 113.650137,86 C112.341777,86 111.572449,85.6421219 111.349132,84.9224206 C111.23552,84.6220284 111.182482,84.1387521 111.182482,83.4802 L111.182482,67.7324363 Z" id="Fill-20" fill="#020202"></path>
            <path d="M126.55001,75.2218787 L124.703054,75.1122457 L124.703054,78.9716615 C124.703054,79.4733578 124.781991,79.8373171 124.943826,80.0602004 C125.105661,80.2861446 125.407263,80.3957776 125.852875,80.3957776 C126.298486,80.3957776 126.639981,80.4099687 126.877075,80.4383508 C127.114168,80.4664547 127.365692,80.5549403 127.631644,80.7032509 C128.066505,80.9472817 128.285774,81.5728021 128.285774,82.5798119 C128.285774,83.753219 128.019822,84.4705639 127.487917,84.7321249 C127.20414,84.8629054 126.952616,84.9408171 126.733347,84.968921 C126.517756,84.9973032 126.197764,85.0114943 125.781011,85.0114943 C123.811831,85.0114943 122.313443,84.5729622 121.289243,83.6967329 C120.265043,82.8202254 119.75464,81.339345 119.75464,79.2507527 L119.75464,75.1122457 C119.391926,75.16901 119.003749,75.1971139 118.586996,75.1971139 C118.169959,75.1971139 117.82507,75.0379513 117.548366,74.7199042 C117.27534,74.4018572 117.138686,73.8612051 117.138686,73.0979479 C117.138686,72.3346906 117.185369,71.7795692 117.279019,71.4334183 C117.376063,71.0906064 117.508756,70.8432365 117.677947,70.6946476 C117.979549,70.450895 118.360653,70.3306883 118.816733,70.3306883 L119.75464,70.440043 L119.75464,67.5598114 C119.75464,67.1324096 119.769352,66.8143626 119.797928,66.6092876 C119.823109,66.4042127 119.91308,66.1816076 120.067276,65.937855 C120.311726,65.4748364 121.041398,65.2413793 122.256008,65.2413793 C123.545878,65.2413793 124.311199,65.5844694 124.559327,66.2734322 C124.652693,66.5739491 124.703054,67.0475414 124.703054,67.7011656 L124.703054,70.440043 C125.536561,70.3660268 126.16551,70.3306883 126.593015,70.3306883 C127.017124,70.3306883 127.340511,70.3448794 127.55978,70.3729832 C127.775372,70.3977481 128.026895,70.4898509 128.31435,70.6381616 C128.806645,70.8785751 129.051095,71.59592 129.051095,72.7904746 C129.051095,73.9638817 128.795894,74.6845657 128.285774,74.9427876 C127.998319,75.0732898 127.746513,75.1548189 127.530922,75.1829228 C127.311935,75.2076876 126.98487,75.2218787 126.55001,75.2218787" id="Fill-22" fill="#020202"></path>
            <path d="M135.547164,80.6232481 C135.848967,80.9237913 136,81.541706 136,82.473311 L136,82.5803286 C136,83.0044547 135.986534,83.3149897 135.959601,83.5187701 C135.932933,83.7222876 135.838933,83.9628799 135.681299,84.2434394 C135.41303,84.7577548 134.74579,85.0114943 133.675883,85.0114943 C132.605975,85.0114943 131.898601,84.8445258 131.553231,84.5105889 C131.207597,84.1732338 131.036496,83.542172 131.036496,82.6068858 L131.036496,82.5001312 C131.036496,82.0959887 131.049963,81.7888719 131.076895,81.5750997 C131.103564,81.3644828 131.18753,81.1275717 131.328265,80.8638405 C131.593366,80.3326968 132.260605,80.0689655 133.330513,80.0689655 C134.400156,80.0689655 135.141328,80.2559176 135.547164,80.6232481" id="Fill-24" fill="#020202"></path>
        </g>
    </g>
</svg>